# Blender 3.3.1
# www.blender.org
o mesh
v 0.000000 -0.000000 2.313730
v 1.000000 -0.000000 2.078430
v 2.000000 -0.000000 2.000000
v 3.000000 -0.000000 1.882350
v 4.000000 -0.000000 1.882350
v 5.000000 -0.000000 1.960780
v 6.000000 -0.000000 1.529410
v 7.000000 -0.000000 1.607840
v 8.000000 -0.000000 2.352940
v 9.000000 -0.000001 3.607840
v 0.000000 1.000000 3.058820
v 1.000000 1.000000 2.941180
v 2.000000 1.000000 2.392160
v 3.000000 1.000000 2.117650
v 4.000000 1.000000 2.078430
v 5.000000 1.000000 2.156860
v 6.000000 1.000000 1.960780
v 7.000000 1.000000 1.921570
v 8.000000 1.000000 2.392160
v 9.000000 1.000000 3.058820
v 0.000000 1.999999 4.039220
v 1.000000 1.999999 3.803920
v 2.000000 2.000000 3.058820
v 3.000000 2.000000 2.431370
v 4.000000 2.000000 2.235290
v 5.000000 2.000000 2.156860
v 6.000000 2.000000 2.117650
v 7.000000 2.000000 2.196080
v 8.000000 2.000000 2.431370
v 9.000000 2.000000 3.098040
v 0.000000 2.999999 4.509800
v 1.000000 2.999999 4.156860
v 2.000000 2.999999 5.058820
v 3.000000 2.999999 4.352941
v 4.000000 3.000000 2.549021
v 5.000000 3.000000 2.313730
v 6.000000 3.000000 2.274510
v 7.000000 3.000000 2.392160
v 8.000000 3.000000 2.666671
v 9.000000 3.000000 3.294121
v 0.000000 4.000000 3.254901
v 1.000000 4.000000 3.490201
v 2.000000 3.999999 4.627450
v 3.000000 3.999999 5.215691
v 4.000000 3.999999 3.921571
v 5.000000 4.000000 2.666671
v 6.000000 4.000000 2.588241
v 7.000000 4.000000 2.823531
v 8.000000 4.000000 2.941181
v 9.000000 3.999999 3.764711
v 0.000000 5.000000 2.588241
v 1.000000 5.000000 2.509801
v 2.000000 5.000000 2.470591
v 3.000000 5.000000 2.705881
v 4.000000 5.000000 3.529411
v 5.000000 5.000000 4.000001
v 6.000000 5.000000 3.843141
v 7.000000 5.000000 3.647061
v 8.000000 5.000000 3.137251
v 9.000000 5.000000 4.196081
v 0.000000 6.000000 1.921571
v 1.000000 6.000000 1.882351
v 2.000000 6.000000 1.882351
v 3.000000 6.000000 2.000001
v 4.000000 6.000000 2.549021
v 5.000000 6.000000 4.274511
v 6.000000 5.999999 5.098041
v 7.000000 5.999999 5.058821
v 8.000000 6.000000 3.960781
v 9.000000 6.000000 4.274511
v 0.000000 7.000000 1.686271
v 1.000000 7.000000 1.686271
v 2.000000 7.000000 1.686271
v 3.000000 7.000000 1.843141
v 4.000000 7.000000 2.470591
v 5.000000 7.000000 3.137251
v 6.000000 7.000000 3.725491
v 7.000000 7.000000 4.078431
v 8.000000 7.000000 4.313731
v 9.000000 6.999999 4.745101
v 0.000000 8.000000 1.568631
v 1.000000 8.000000 1.647061
v 2.000000 8.000000 1.686271
v 3.000000 8.000000 1.882351
v 4.000000 8.000000 2.392161
v 5.000000 8.000000 2.509801
v 6.000000 8.000000 2.705881
v 7.000000 8.000000 2.862751
v 8.000000 8.000000 3.647061
v 9.000000 7.999999 4.666671
v 0.000000 9.000000 1.529411
v 1.000000 9.000000 1.725491
v 2.000000 9.000000 1.921571
v 3.000000 9.000000 2.000001
v 4.000000 9.000000 2.392161
v 5.000000 8.999999 2.941181
v 6.000000 9.000000 2.823531
v 7.000000 9.000000 2.823531
v 8.000000 8.999999 2.941181
v 9.000000 8.999999 3.647061
vn -0.1854 0.5871 -0.7880
vn -0.0887 0.6507 -0.7542
vn -0.0593 0.6521 -0.7558
vn -0.4551 0.3251 -0.8290
vn -0.1089 0.3629 -0.9254
vn -0.2582 0.2213 -0.9404
vn -0.0000 0.2290 -0.9734
vn -0.0385 0.1923 -0.9806
vn 0.0767 0.1918 -0.9784
vn -0.3898 0.1772 -0.9037
vn -0.1772 0.3898 -0.9037
vn 0.0718 0.3951 -0.9158
vn -0.0374 0.2991 -0.9535
vn 0.5794 0.2440 -0.7777
vn 0.4255 0.0355 -0.9042
vn 0.7818 0.0244 -0.6230
vn 0.5045 -0.4155 -0.7568
vn -0.0837 0.6976 -0.7116
vn -0.1754 0.6431 -0.7454
vn -0.3839 0.6032 -0.6992
vn -0.5269 0.4714 -0.7072
vn -0.2227 0.5408 -0.8112
vn -0.5137 0.2568 -0.8187
vn -0.1902 0.1521 -0.9699
vn 0.0773 0.1545 -0.9850
vn -0.0782 -0.0000 -0.9969
vn -0.1924 -0.0000 -0.9813
vn -0.0387 0.1549 -0.9872
vn 0.0754 0.2640 -0.9616
vn 0.4132 0.2411 -0.8781
vn 0.2289 0.0381 -0.9727
vn 0.5544 0.0326 -0.8316
vn -0.2082 0.4165 -0.8850
vn -0.3158 0.3158 -0.8947
vn -0.5749 0.2723 -0.7716
vn 0.3741 0.8295 -0.4147
vn -0.2702 0.8612 -0.4306
vn -0.3098 0.8434 -0.4389
vn -0.0901 0.8835 -0.4598
vn -0.8647 0.1504 -0.4793
vn -0.0746 0.2985 -0.9515
vn -0.2264 0.1510 -0.9623
vn -0.0387 0.1548 -0.9872
vn 0.1147 0.1911 -0.9748
vn 0.2250 0.1875 -0.9562
vn 0.2582 0.2213 -0.9404
vn 0.5444 0.1921 -0.8165
vn 0.5243 0.1638 -0.8356
vn -0.2148 -0.7638 -0.6087
vn 0.1921 -0.5444 -0.8166
vn 0.6002 -0.4437 -0.6655
vn 0.7222 -0.2740 -0.6351
vn -0.5439 -0.3324 -0.7705
vn 0.4069 0.5967 -0.6917
vn -0.8069 0.3859 -0.4473
vn -0.6061 0.6429 -0.4684
vn -0.1372 0.8006 -0.5833
vn -0.7638 0.2148 -0.6087
vn -0.0370 0.3326 -0.9423
vn 0.1116 0.2975 -0.9482
vn 0.2112 0.3872 -0.8975
vn 0.2444 0.3841 -0.8904
vn 0.1127 0.2630 -0.9582
vn 0.5177 0.2265 -0.8251
vn 0.5975 0.3414 -0.7255
vn -0.0559 -0.6990 -0.7130
vn 0.6304 -0.5435 -0.5543
vn -0.0165 -0.9071 -0.4206
vn 0.2402 -0.8807 -0.4083
vn 0.0868 -0.9255 -0.3687
vn -0.4320 -0.8378 -0.3338
vn 0.6084 -0.2897 -0.7388
vn -0.7597 -0.2374 -0.6054
vn 0.2717 0.7699 -0.5774
vn -0.0470 0.7991 -0.5993
vn -0.0973 0.7783 -0.6202
vn 0.1451 0.7738 -0.6166
vn -0.1497 0.6285 -0.7632
vn 0.0904 0.6331 -0.7688
vn -0.4474 0.1721 -0.8776
vn 0.6285 0.1496 -0.7632
vn 0.6971 0.2840 -0.6584
vn -0.0651 -0.5535 -0.8303
vn -0.0332 -0.5312 -0.8466
vn -0.0000 -0.5070 -0.8619
vn 0.1988 -0.4969 -0.8447
vn 0.0957 -0.5740 -0.8132
vn 0.5582 -0.4785 -0.6778
vn 0.3650 -0.6518 -0.6648
vn 0.3185 -0.6636 -0.6769
vn 0.8571 0.1364 -0.4967
vn -0.1496 0.2617 -0.9535
vn 0.4566 0.6958 -0.5544
vn -0.1213 0.7763 -0.6186
vn -0.0227 0.8158 -0.5779
vn -0.2827 0.7827 -0.5544
vn -0.6466 0.4849 -0.5889
vn 0.6328 0.4922 -0.5977
vn 0.2985 0.0746 -0.9515
vn -0.0381 -0.2289 -0.9727
vn -0.0000 -0.1924 -0.9813
vn 0.1147 -0.1911 -0.9748
vn 0.1531 -0.1531 -0.9763
vn 0.4768 -0.1362 -0.8684
vn 0.5303 -0.0663 -0.8452
vn 0.8645 -0.0393 -0.5010
vn 0.4029 -0.6873 -0.6044
vn 0.4777 -0.6597 -0.5801
vn 0.3273 -0.7637 -0.5564
vn -0.0231 -0.8080 -0.5887
vn 0.2444 -0.6788 -0.6924
vn -0.6170 -0.5509 -0.5619
vn 0.2166 0.3249 -0.9206
vn 0.2837 0.3192 -0.9042
vn 0.3636 0.3967 -0.8429
vn -0.0000 -0.1168 -0.9932
vn 0.0781 -0.0391 -0.9962
vn -0.0000 -0.0392 -0.9992
vn 0.0392 -0.0000 -0.9992
vn 0.1550 -0.0000 -0.9879
vn 0.1923 0.0384 -0.9806
vn 0.5312 0.0332 -0.8466
vn 0.4531 -0.0697 -0.8887
vn 0.5535 -0.0651 -0.8303
vn 0.0992 -0.5289 -0.8429
vn 0.4460 -0.4757 -0.7582
vn 0.1360 -0.7073 -0.6937
vn 0.2399 -0.6931 -0.6798
vn 0.0992 -0.7685 -0.6321
vn 0.1478 -0.7638 -0.6283
vn 0.5465 -0.4645 -0.6968
vn 0.3378 -0.5221 -0.7831
vn 0.7129 -0.0548 -0.6992
vn 0.1918 0.0767 -0.9784
vn 0.0391 0.0781 -0.9962
vn 0.1875 0.2250 -0.9562
vn 0.0777 0.1165 -0.9902
vn 0.4517 0.1042 -0.8861
vn 0.3651 -0.0000 -0.9310
vn 0.1168 -0.0000 -0.9932
vn 0.4502 0.3537 -0.8199
vn 0.1772 0.3898 -0.9037
vn -0.1161 0.1161 -0.9864
vn 0.1539 0.1155 -0.9813
vn 0.6168 -0.0308 -0.7865
vn 0.6400 -0.4431 -0.6277
vn 0.4431 -0.6400 -0.6277
s 0
f 1//1 11//1 2//1
f 2//2 11//2 12//2
f 2//3 12//3 3//3
f 3//4 12//4 13//4
f 3//5 13//5 4//5
f 4//6 13//6 14//6
f 4//7 14//7 5//7
f 5//8 14//8 15//8
f 5//9 15//9 6//9
f 6//9 15//9 16//9
f 6//10 16//10 7//10
f 7//11 16//11 17//11
f 7//12 17//12 8//12
f 8//13 17//13 18//13
f 8//14 18//14 9//14
f 9//15 18//15 19//15
f 9//16 19//16 10//16
f 10//17 19//17 20//17
f 11//18 21//18 12//18
f 12//19 21//19 22//19
f 12//20 22//20 13//20
f 13//21 22//21 23//21
f 13//22 23//22 14//22
f 14//23 23//23 24//23
f 14//13 24//13 15//13
f 15//24 24//24 25//24
f 15//25 25//25 16//25
f 16//26 25//26 26//26
f 16//27 26//27 17//27
f 17//28 26//28 27//28
f 17//28 27//28 18//28
f 18//29 27//29 28//29
f 18//30 28//30 19//30
f 19//31 28//31 29//31
f 19//32 29//32 20//32
f 20//32 29//32 30//32
f 21//33 31//33 22//33
f 22//34 31//34 32//34
f 22//35 32//35 23//35
f 23//36 32//36 33//36
f 23//37 33//37 24//37
f 24//38 33//38 34//38
f 24//39 34//39 25//39
f 25//40 34//40 35//40
f 25//41 35//41 26//41
f 26//42 35//42 36//42
f 26//28 36//28 27//28
f 27//43 36//43 37//43
f 27//25 37//25 28//25
f 28//44 37//44 38//44
f 28//45 38//45 29//45
f 29//46 38//46 39//46
f 29//47 39//47 30//47
f 30//48 39//48 40//48
f 31//49 41//49 32//49
f 32//50 41//50 42//50
f 32//51 42//51 33//51
f 33//52 42//52 43//52
f 33//53 43//53 34//53
f 34//54 43//54 44//54
f 34//55 44//55 35//55
f 35//56 44//56 45//56
f 35//57 45//57 36//57
f 36//58 45//58 46//58
f 36//59 46//59 37//59
f 37//41 46//41 47//41
f 37//60 47//60 38//60
f 38//61 47//61 48//61
f 38//62 48//62 39//62
f 39//63 48//63 49//63
f 39//64 49//64 40//64
f 40//65 49//65 50//65
f 41//50 51//50 42//50
f 42//66 51//66 52//66
f 42//67 52//67 43//67
f 43//68 52//68 53//68
f 43//69 53//69 44//69
f 44//70 53//70 54//70
f 44//71 54//71 45//71
f 45//72 54//72 55//72
f 45//73 55//73 46//73
f 46//74 55//74 56//74
f 46//75 56//75 47//75
f 47//76 56//76 57//76
f 47//77 57//77 48//77
f 48//78 57//78 58//78
f 48//79 58//79 49//79
f 49//80 58//80 59//80
f 49//81 59//81 50//81
f 50//82 59//82 60//82
f 51//83 61//83 52//83
f 52//84 61//84 62//84
f 52//84 62//84 53//84
f 53//85 62//85 63//85
f 53//86 63//86 54//86
f 54//87 63//87 64//87
f 54//88 64//88 55//88
f 55//89 64//89 65//89
f 55//90 65//90 56//90
f 56//91 65//91 66//91
f 56//92 66//92 57//92
f 57//93 66//93 67//93
f 57//94 67//94 58//94
f 58//95 67//95 68//95
f 58//96 68//96 59//96
f 59//97 68//97 69//97
f 59//98 69//98 60//98
f 60//99 69//99 70//99
f 61//100 71//100 62//100
f 62//101 71//101 72//101
f 62//101 72//101 63//101
f 63//101 72//101 73//101
f 63//102 73//102 64//102
f 64//103 73//103 74//103
f 64//104 74//104 65//104
f 65//105 74//105 75//105
f 65//106 75//106 66//106
f 66//107 75//107 76//107
f 66//108 76//108 67//108
f 67//109 76//109 77//109
f 67//110 77//110 68//110
f 68//111 77//111 78//111
f 68//112 78//112 69//112
f 69//113 78//113 79//113
f 69//114 79//114 70//114
f 70//115 79//115 80//115
f 71//116 81//116 72//116
f 72//117 81//117 82//117
f 72//118 82//118 73//118
f 73//119 82//119 83//119
f 73//120 83//120 74//120
f 74//121 83//121 84//121
f 74//122 84//122 75//122
f 75//123 84//123 85//123
f 75//124 85//124 76//124
f 76//125 85//125 86//125
f 76//126 86//126 77//126
f 77//127 86//127 87//127
f 77//128 87//128 78//128
f 78//129 87//129 88//129
f 78//130 88//130 79//130
f 79//131 88//131 89//131
f 79//132 89//132 80//132
f 80//133 89//133 90//133
f 81//117 91//117 82//117
f 82//134 91//134 92//134
f 82//135 92//135 83//135
f 83//136 92//136 93//136
f 83//136 93//136 84//136
f 84//137 93//137 94//137
f 84//138 94//138 85//138
f 85//139 94//139 95//139
f 85//140 95//140 86//140
f 86//141 95//141 96//141
f 86//142 96//142 87//142
f 87//143 96//143 97//143
f 87//144 97//144 88//144
f 88//118 97//118 98//118
f 88//145 98//145 89//145
f 89//87 98//87 99//87
f 89//146 99//146 90//146
f 90//147 99//147 100//147
